# xmcd
#
# Track frame offsets: 
#        150
#        13738
#        26302
#        40822
#        55116
#        70213
#        83423
#        97116
#        111146
#        124497
#        137867
#        152358
#        166355
#        179819
#        193513
#        207878
#        221451
#        233984
#        248246
#        261802
#        273154
#        285980
#        298638
#
# Disc length: 4138 seconds
#
# Revision: 0
# Processed by: cddbd v1.4PL0 Copyright (c) Steve Scherf et al.
# Submitted via: ExactAudioCopy v0.90b4
#
DISCID=4a102817
DTITLE=Various Artist - A handful of riffs - Blues guitar pioneers
DYEAR=1999
DGENRE=Blues
TTITLE0=Blind Lemon Jefferson - Matchbox Blues
TTITLE1=Walter Lewis - Rock Island Blues
TTITLE2=Barbecue Bob - Motherless Chile
TTITLE3=Blind Willie Johnson - Nobody's fault but mine
TTITLE4=Tommy Johnson - Big road blues
TTITLE5=Mississippi John Hurt - Stack O Lee Blues
TTITLE6=Tampa Red - It's tight like that
TTITLE7=Lonnie Johnson -Handful Of Riffs
TTITLE8=Charley Patton - Pony blues
TTITLE9=Blind Blake - Diddie Wa Diddie
TTITLE10=Blind Willie McTell - Travelin ' Blues
TTITLE11=Son House - My Black Mama
TTITLE12=Skip James - Devil Got My Woman
TTITLE13=Big Bill Broonzy - Mistreatin' Mama
TTITLE14=Kokomo Arnold - The Twelves (Dirty Dozens)
TTITLE15=Robert Johnson - Terraplane Blues
TTITLE16=Black Ace - Black Ace
TTITLE17=Sleepy John Estes - Floating Bridge
TTITLE18=Bukka White - Shake'em On Down
TTITLE19=Blind Boy Fuller - Jitterbug Rag
TTITLE20=Robert Petway - Catfish Blues
TTITLE21=Tommy McClennan - Cross Cut Saw
TTITLE22=Arthur Crudup - Mean Old Frisco
EXTD=
EXTT0=
EXTT1=
EXTT2=
EXTT3=
EXTT4=
EXTT5=
EXTT6=
EXTT7=
EXTT8=
EXTT9=
EXTT10=
EXTT11=
EXTT12=
EXTT13=
EXTT14=
EXTT15=
EXTT16=
EXTT17=
EXTT18=
EXTT19=
EXTT20=
EXTT21=
EXTT22=
PLAYORDER=
